<svg id="beer" enable-background="new 0 0 300 300" height="512" viewBox="0 0 300 300" width="512" xmlns="http://www.w3.org/2000/svg"><path d="m207.461 120.398-8.023-60.672c4.395-1.055 7.668-5.016 7.668-9.727 0-3.255-1.586-6.123-4-7.95v-2.651c0-6.285-5.113-11.398-11.398-11.398h-17.203c-6.285 0-11.398 5.113-11.398 11.398v2.651c-2.414 1.827-4 4.695-4 7.95 0 4.594 3.113 8.477 7.344 9.641l-3.297 24.934c-1.899-.655-3.916-1.074-6.046-1.074-1.867 0-3.699.281-5.453.824-2.496-6.664-9.148-11.441-16.945-11.441-5.789 0-11.156 2.73-14.492 7.102-2.457-1.172-5.156-1.793-7.91-1.793-7.414 0-13.852 4.285-16.578 10.621-.074-.004-.148-.004-.223-.004-6.836 0-12.398 5.367-12.398 11.961v10.146c-.489.569-.877 1.231-.984 2.029-.672 5.02-1.422 13.109-1.18 23.152.379 15.637 3.328 39.375 15.254 63.664 2.895 5.906 4.277 12.566 3.996 19.262-.242 5.66-1.344 10.781-3.277 15.223-2.227 5.109-3.309 9.863-3.309 14.531v11.625c0 6.395 5.203 11.598 11.598 11.598h48.5c1.215 0 2.364-.24 3.466-.588.588.34 1.234.588 1.964.588h47.945c6.633 0 12.027-5.395 12.027-12.027v-55.973-20-49.137c-.004-7.015-4.89-12.91-11.648-14.465zm-7.524 4.125c.262 1.988 2.297 3.477 4.305 3.477 3.785 0 6.863 3.078 6.863 6.863v45.137h-4v-12c0-13.234-10.766-24-24-24-1.895 0-3.785.229-5.62.669.237-3.037.412-5.954.476-8.572.238-9.875-.488-17.879-1.141-22.859-.152-1.171-.814-2.131-1.715-2.752v-9.716c0-4.356-1.745-8.293-4.528-11.335l4.353-32.911c.152-1.141-.195-2.293-.957-3.16-.758-.867-1.855-1.363-3.008-1.363h-1.859c-1.102 0-2-.898-2-2s.898-2 2-2h28c1.102 0 2 .898 2 2s-.898 2-2 2h-2.195c-1.152 0-2.25.496-3.008 1.363-.762.867-1.109 2.02-.957 3.16zm11.168 75.477h-4v-12h4zm-122.211-68c.01-6.595.45-12.002.919-16h41.292v6c0 5.516 4.484 10 10 10s10-4.484 10-10v-6h17.985c.463 3.974.907 9.394.917 16h-28.902zm87.642 21.487c2.068-.939 4.26-1.487 6.569-1.487 8.824 0 16 7.176 16 16v12h-28.507c3.013-9.445 4.852-18.418 5.938-26.513zm-8.769 34.513h31.338v12h-36.497c.038-.077.061-.161.099-.238 1.941-3.952 3.567-7.871 5.06-11.762zm-.662 20h32v8c0 8.824-7.176 16-16 16s-16-7.176-16-16zm7.399-172h17.203c1.875 0 3.398 1.523 3.398 3.398v.602h-24v-.602c0-1.875 1.524-3.398 3.399-3.398zm-83.399 64.77c0-2.668 3.02-4.77 6.043-3.656 1.125.41 2.355.301 3.387-.293 1.027-.598 1.738-1.621 1.938-2.793.766-4.539 4.902-7.836 9.832-7.836 2.449 0 4.832.875 6.707 2.469.992.84 2.324 1.16 3.574.824 1.258-.316 2.281-1.227 2.746-2.434 1.426-3.688 5.195-6.168 9.375-6.168 5.457 0 9.91 4.074 10 9.117-.004.074-.008.148-.008.219 0 1.5.84 2.875 2.176 3.559 1.324.688 2.938.562 4.156-.309 1.793-1.289 3.895-1.969 6.074-1.969 5.516 0 10 4.16 10 9.27v7.23h-20c-2.211 0-4 1.789-4 4v10c0 1.102-.898 2-2 2s-2-.898-2-2v-10c0-2.211-1.789-4-4-4h-44zm14.098 163.23c-1.984 0-3.598-1.613-3.598-3.598v-11.625c0-3.547.863-7.254 2.645-11.336 2.328-5.352 3.652-11.434 3.934-18.082.34-8.027-1.324-16.023-4.809-23.121-10.307-20.996-13.502-41.52-14.254-56.238h80.66c-.752 14.722-3.946 35.249-14.254 56.238-3.484 7.098-5.148 15.094-4.809 23.121.281 6.648 1.605 12.73 3.934 18.082 1.781 4.082 2.645 7.789 2.645 11.336v11.625c0 1.984-1.613 3.598-3.594 3.598zm101.875 0h-42.41c.375-1.14.629-2.334.629-3.598v-11.625c0-4.668-1.082-9.422-3.309-14.531-1.934-4.441-3.035-9.562-3.277-15.223-.1-2.373.083-4.728.395-7.06v4.037c0 13.234 10.766 24 24 24s24-10.766 24-24v-8h4v51.973c-.001 2.222-1.809 4.027-4.028 4.027z"/><circle cx="183.105" cy="168" r="6.627"/><path d="m143.105 248h-28c-2.211 0-4 1.789-4 4s1.789 4 4 4h28c2.211 0 4-1.789 4-4s-1.789-4-4-4z"/></svg>