<svg height="511pt" viewBox="0 -42 511.99994 511" width="511pt" xmlns="http://www.w3.org/2000/svg"><path d="m479.757812 238.035156h-247.941406c-17.765625 0-32.222656-14.457031-32.222656-32.226562v-173.082032c0-17.769531 14.457031-32.226562 32.222656-32.226562h247.941406c17.769532 0 32.226563 14.457031 32.226563 32.226562v173.082032c0 17.769531-14.457031 32.226562-32.226563 32.226562zm-247.941406-217.535156c-6.738281 0-12.226562 5.484375-12.226562 12.226562v173.082032c0 6.742187 5.488281 12.226562 12.226562 12.226562h247.941406c6.742188 0 12.226563-5.484375 12.226563-12.226562v-173.082032c0-6.742187-5.484375-12.226562-12.226563-12.226562zm0 0"/><path d="m182.484375 355.601562c-4.121094 0-7.902344-2.628906-9.351563-6.480468-1.445312-3.847656-.339843-8.324219 2.757813-11.035156 3.277344-2.867188 8.171875-3.257813 11.871094-.96875 3.546875 2.195312 5.386719 6.511718 4.496093 10.59375-.992187 4.542968-5.117187 7.890624-9.773437 7.890624zm0 0"/><path d="m509.0625 288.355469c-7.613281-17.433594-28.066406-25.59375-45.589844-18.195313l-69.175781 29.214844c-1.75-6.667969-4.9375-11.425781-7.878906-14.625-6.597657-7.175781-16.175781-11.128906-26.980469-11.128906-.140625 0-.285156.003906-.429688.007812-51.140624 2.199219-108.335937 3.351563-119.875 1.648438-23.347656-20.082032-48.570312-28.664063-73.078124-24.8125-21.074219 3.3125-40.371094 15.574218-56.640626 35.804687-1.257812-.574219-2.660156-.890625-4.132812-.890625h-95.28125c-5.523438 0-10 4.476563-10 10v121.914063c0 5.523437 4.476562 10 10 10h95.28125c5.523438 0 10-4.476563 10-10v-32.679688c7.367188 4.460938 13.65625 9.191407 19.808594 13.824219 16.835937 12.667969 32.738281 24.632812 62.832031 24.632812h133.25c16.976563 0 33.445313-4.929687 47.625-14.265624l117.460937-77.304688c14.242188-9.371094 19.628907-27.519531 12.804688-43.144531zm-413.78125 118.9375h-75.28125v-101.917969h75.28125zm389.980469-92.496094-117.457031 77.304687c-10.910157 7.175782-23.574219 10.972657-36.632813 10.972657h-133.25c-23.410156 0-34.902344-8.648438-50.808594-20.617188-8.835937-6.648437-18.703125-14.074219-31.832031-20.695312v-49.089844c15.121094-24.621094 33.710938-39.277344 53.878906-42.445313 18.988282-2.984374 39.167969 4.4375 58.355469 21.460938.066406.054688.128906.113281.195313.167969 3.644531 3.070312 6.277343 5.292969 71.351562 3.765625 28.96875-.675782 57.6875-1.878906 60.570312-2 3.621094.027344 8.582032.875 12.0625 4.660156 2.441407 2.660156 3.777344 6.464844 3.925782 11.128906-17.917969 16.691406-41.921875 26.195313-66.460938 26.195313h-81.515625c-5.523437 0-10 4.476562-10 9.996093 0 5.523438 4.476563 10 10 10h81.515625c30.292969 0 59.914063-12.015624 81.667969-33.050781l80.425781-33.964843c7.488282-3.164063 16.226563.324218 19.480469 7.773437 2.914063 6.675781.613281 14.429687-5.472656 18.4375zm0 0"/><path d="m457.492188 166.847656-61.574219-49.679687 61.574219-49.679688c4.296874-3.46875 4.96875-9.765625 1.5-14.0625-3.464844-4.300781-9.761719-4.96875-14.058594-1.503906l-89.144532 71.925781-89.148437-71.925781c-4.296875-3.464844-10.59375-2.792969-14.058594 1.503906-3.46875 4.296875-2.796875 10.59375 1.5 14.0625l61.574219 49.679688-61.574219 49.679687c-4.296875 3.464844-4.96875 9.761719-1.5 14.058594 1.972657 2.449219 4.867188 3.722656 7.785157 3.722656 2.207031 0 4.425781-.726562 6.273437-2.21875l64.941406-52.394531 17.925781 14.464844c1.832032 1.476562 4.054688 2.214843 6.277344 2.214843s4.449219-.738281 6.28125-2.214843l17.925782-14.464844 64.9375 52.394531c1.851562 1.492188 4.070312 2.21875 6.273437 2.21875 2.917969 0 5.8125-1.273437 7.789063-3.722656 3.46875-4.296875 2.796874-10.589844-1.5-14.058594zm0 0"/></svg>