<svg id="Capa_1" enable-background="new 0 0 512.002 512.002" height="512" viewBox="0 0 512.002 512.002" width="512" xmlns="http://www.w3.org/2000/svg"><path d="m507.608 4.393c-5.857-5.857-15.355-5.857-21.213 0l-42.532 42.532c-28.825-19.141-68.508-16.351-94.403 9.546-11.93 11.93-18.989 26.912-21.185 42.455l-21.242-21.242c-5.857-5.858-15.355-5.858-21.213 0-7.623 7.623-119.948 119.947-127.279 127.279-5.854 5.853-5.858 15.356 0 21.213l21.242 21.242c-15.544 2.196-30.526 9.254-42.456 21.184-16.114 16.114-23.328 37.796-21.682 58.91-36.083-11.225-77.071-2.583-105.597 25.942-5.854 5.853-5.858 15.356 0 21.213l42.427 42.427c5.857 5.858 15.355 5.858 21.213 0 .022-.022.046-.04.068-.061l-69.361 69.36c-5.858 5.858-5.858 15.355 0 21.213 5.857 5.858 15.355 5.858 21.213 0l69.239-69.239c-5.8 5.862-5.784 15.314.055 21.153l42.426 42.426c5.856 5.858 15.354 5.858 21.213 0 28.518-28.518 37.22-69.427 25.984-105.593 22.153 1.714 43.445-6.262 58.869-21.686 11.633-11.632 18.963-26.416 21.217-42.423l21.21 21.21c5.858 5.858 15.355 5.858 21.213 0l127.279-127.279c5.854-5.853 5.858-15.356 0-21.213l-21.21-21.21c16.007-2.254 30.79-9.584 42.423-21.216 25.611-25.61 28.79-65.285 9.542-94.39l42.542-42.542c5.856-5.855 5.856-15.353-.002-21.211zm-237.001 164.145c11.59 11.591 25.936 20.457 41.486 25.64 22.613 7.538 40.613 25.539 48.152 48.154 1.258 3.772 2.729 7.475 4.402 11.083l-27.377 27.377c-3.609-1.674-7.313-3.146-11.085-4.403-22.613-7.538-40.613-25.539-48.151-48.153-5.185-15.551-14.051-29.897-25.641-41.486l-16.607-16.607 18.214-18.212zm-123.732 300.532-21.956-21.956c7.838-16.374 5.312-37.115-8.805-51.231-14.101-14.102-34.84-16.651-51.231-8.804l-21.95-21.95c29.106-19.25 68.785-16.068 94.395 9.541 25.846 25.846 28.627 65.615 9.547 94.4zm75.305-115.614c-17.546 17.544-46.09 17.545-63.637.003-.001-.001-.002-.002-.003-.003s-.002-.002-.003-.003c-17.542-17.546-17.541-46.092.003-63.636 17.546-17.545 46.095-17.546 63.641 0 17.587 17.588 17.587 46.051-.001 63.639zm74.246-31.819-53.031-53.031c-.001-.001-.001-.002-.002-.003s-.002-.001-.002-.002l-53.031-53.031 24.214-24.213 16.607 16.607c8.313 8.313 14.674 18.604 18.393 29.76 10.22 30.658 34.236 55.229 64.544 66.222zm91.376-91.376c-10.993-30.308-35.564-54.325-66.222-64.544-11.155-3.718-21.445-10.078-29.76-18.393l-16.607-16.607 21.213-21.213 106.066 106.066zm46.51-88.937c-17.584 17.583-46.047 17.591-63.637.002-17.542-17.546-17.547-46.097-.002-63.642 17.585-17.585 46.05-17.588 63.64 0 17.545 17.546 17.545 46.095-.001 63.64z"/></svg>