<?xml version="1.0" encoding="iso-8859-1"?>
<!-- Generator: Adobe Illustrator 19.0.0, SVG Export Plug-In . SVG Version: 6.00 Build 0)  -->
<svg version="1.1" id="Capa_1" xmlns="http://www.w3.org/2000/svg" xmlns:xlink="http://www.w3.org/1999/xlink" x="0px" y="0px"
	 viewBox="0 0 512.069 512.069" style="enable-background:new 0 0 512.069 512.069;" xml:space="preserve">
<g>
	<g>
		<path d="M501.368,224.068H256.034V21.402h-21.333v202.667h-42.667v-192h-21.333v192h-42.667V42.735h-21.333v181.333h-96
			c-5.891,0-10.667,4.776-10.667,10.667c0.003,91.469,48.793,175.991,128,221.739v44.928c0,5.891,4.776,10.667,10.667,10.667
			h234.667c5.891,0,10.667-4.776,10.667-10.667v-44.928c79.207-45.748,127.998-130.27,128-221.739
			C512.034,228.844,507.259,224.068,501.368,224.068z M488.507,266.734h-29.806v21.333h25.856
			c-1.687,7.226-3.71,14.344-6.057,21.333h-41.133v-32c0-5.891-4.776-10.667-10.667-10.667h-64c-5.891,0-10.667,4.776-10.667,10.667
			v42.667c0,5.891,4.776,10.667,10.667,10.667h32v-21.332h-21.333v-21.333h42.667v32c0,5.891,4.776,10.667,10.667,10.667h43.454
			c-20.702,46.15-56.1,85.149-101.897,110.1c-3.427,1.87-5.558,5.462-5.557,9.365v40.533H149.367v-32h181.334v-21.332h-192v0.591
			c-43.331-25.026-76.878-62.826-96.8-107.258h11.467v-21.333h-19.81c-2.346-6.989-4.367-14.107-6.053-21.333h47.196v32
			c0,5.891,4.776,10.667,10.667,10.667h64c5.891,0,10.667-4.776,10.667-10.667v-42.667c0-5.891-4.776-10.667-10.667-10.667h-32
			v21.333h21.333v21.333H96.034v-32c0-5.891-4.776-10.667-10.667-10.667H23.558c-0.968-7.039-1.629-14.155-1.956-21.333h468.864
			C490.138,252.579,489.476,259.695,488.507,266.734z"/>
	</g>
</g>
<g>
	<g>
		<path d="M320.034,266.735h-32v21.333h21.333v21.333h-42.666v-32c0-5.891-4.776-10.667-10.667-10.667h-64
			c-5.891,0-10.667,4.776-10.667,10.667v42.667c0,5.891,4.776,10.667,10.667,10.667h32v-21.333h-21.333v-21.333h42.667v32
			c0,5.891,4.776,10.667,10.667,10.667h64c5.891,0,10.667-4.776,10.667-10.667v-42.667
			C330.701,271.511,325.925,266.735,320.034,266.735z"/>
	</g>
</g>
<g>
	<g>
		<rect x="138.701" y="32.072" width="21.333" height="181.33"/>
	</g>
</g>
<g>
	<g>
		<rect x="202.701" y="21.402" width="21.333" height="192"/>
	</g>
</g>
<g>
	<g>
		<rect x="266.266" y="10.678" transform="matrix(0.9959 -0.091 0.091 0.9959 -0.349 35.0401)" width="235.672" height="21.338"/>
	</g>
</g>
<g>
	<g>
		<rect x="266.253" y="42.635" transform="matrix(0.9959 -0.091 0.091 0.9959 -3.257 35.1715)" width="235.672" height="21.338"/>
	</g>
</g>
<g>
</g>
<g>
</g>
<g>
</g>
<g>
</g>
<g>
</g>
<g>
</g>
<g>
</g>
<g>
</g>
<g>
</g>
<g>
</g>
<g>
</g>
<g>
</g>
<g>
</g>
<g>
</g>
<g>
</g>
</svg>
