<svg id="sushi3" enable-background="new 0 0 300 300" height="512" viewBox="0 0 300 300" width="512" xmlns="http://www.w3.org/2000/svg"><path d="m240.672 142.455c-9.494-8.963-21.902-13.73-34.961-13.314-18.061.52-33.683 10.905-41.711 25.93v-15.496c0-2.259-.343-4.438-.967-6.496l75.26-52.682c1.811-1.268 2.25-3.762.984-5.57-1.268-1.809-3.758-2.246-5.57-.984l-74.384 52.069c-4.109-5.334-10.54-8.792-17.778-8.792h-.905l62.534-81.566c1.344-1.754 1.014-4.264-.74-5.607-1.752-1.34-4.262-1.012-5.607.74l-66.266 86.434h-64.105c-12.381-.002-22.456 10.072-22.456 22.453v43.09c0 12.381 10.074 22.455 22.455 22.455h36.612c-1.948 5.271-3.067 10.941-3.067 16.881 0 26.951 21.928 48.879 48.881 48.879 25.65 0 46.706-19.874 48.684-45.025 3.139.624 6.324 1.026 9.547 1.025.473 0 .945-.006 1.418-.02 26.941-.777 48.227-23.328 47.449-50.27-.375-13.05-5.811-25.173-15.307-34.134zm-84.672-2.881v34.124c-2.331-.343-4.695-.579-7.119-.579-5.28 0-10.355.866-15.122 2.422 1.383-2.558 2.241-5.44 2.241-8.547v-11.75c0-1.037-.138-2.038-.306-3.028l20.158-14.11c.05.489.148.965.148 1.468zm-50.433 16.719c.727.557 1.582.826 2.432.826 1.201 0 2.389-.539 3.176-1.566l7.906-10.312c2.827.341 5.289 1.824 6.907 4.005l-12.28 8.596c-1.811 1.268-2.25 3.762-.984 5.57.779 1.113 2.02 1.707 3.281 1.707.791 0 1.592-.234 2.289-.723l9.707-6.795v9.393c0 5.582-4.543 10.125-10.125 10.125h-27.75c-5.582 0-10.125-4.543-10.125-10.125v-11.75c0-5.582 4.543-10.125 10.125-10.125h18.969l-4.268 5.566c-1.344 1.754-1.014 4.264.74 5.608zm35.978-31.174c4.53 0 8.53 2.137 11.182 5.408l-20.199 14.139c-2.047-2.827-4.873-5.027-8.179-6.3l10.157-13.248h7.039zm-75.089 72c-7.971 0-14.455-6.484-14.455-14.455v-43.09c0-7.971 6.484-14.455 14.455-14.455h57.972l-9.2 12h-25.103c-9.994 0-18.125 8.131-18.125 18.125v11.75c0 9.994 8.131 18.125 18.125 18.125h26.775c-3.95 3.43-7.33 7.48-10.018 12zm82.425 65.76c-22.541 0-40.881-18.338-40.881-40.879s18.34-40.881 40.881-40.881 40.879 18.34 40.879 40.881-18.338 40.879-40.879 40.879zm62.543-104.916c7.415 1.601 13.368 7.277 15.4 14.586l-14.967.431zm-2.515 23.105 18.58-.535c-.527 4.314-2.406 8.334-5.443 11.553-3.766 3.986-8.855 6.27-14.33 6.428-4.229.105-8.221-1.01-11.713-3.279zm-5.489-23.148.484 16.763-13.651 14.983c-2.253-3.24-3.531-7.056-3.647-11.075-.292-10.177 6.938-18.799 16.814-20.671zm33.428 48.14c-7.496 7.941-17.635 12.488-28.547 12.803-3.626.115-7.25-.296-10.758-1.139-.44-5.046-1.635-9.875-3.497-14.368 4 2.069 8.452 3.166 13.061 3.166.277 0 .557-.004.836-.012 7.613-.219 14.686-3.391 19.92-8.934 5.227-5.541 7.986-12.785 7.766-20.391-.006-.268-.029-.529-.074-1.012 0-.002-.001-.004-.001-.006 0-.004.002-.008.001-.011-.957-14.844-13.359-26.551-28.234-26.65-.04-.001-.071.021-.11.021-.039-.003-.073-.025-.113-.027-.271-.01-.541-.023-.801-.01-15.719.453-28.139 13.611-27.688 29.332.048 1.667.262 3.303.589 4.907-3.874-3.076-8.225-5.556-12.92-7.353.83-21.4 18.212-38.622 39.663-39.239 10.918-.322 21.299 3.641 29.24 11.135 7.939 7.496 12.486 17.635 12.801 28.549s-3.64 21.298-11.134 29.239z"/><path d="m148 193.119c-15.5 0-27.643 12.686-27.643 28.881 0 7.615 2.967 14.777 8.352 20.168 0 0 .001 0 .001.001s0 .001.001.001c5.391 5.385 12.555 8.352 20.17 8.352s14.777-2.967 20.168-8.352c0 0 0-.001.001-.001s.001 0 .001-.001c5.385-5.391 8.352-12.553 8.352-20.168 0-15.655-13.465-28.881-29.403-28.881zm-4 8.416v19.584c0 .031.017.057.018.088l-12.2 12.199c-2.249-3.349-3.46-7.285-3.46-11.406 0-10.248 6.609-18.551 15.642-20.465zm-6.529 37.529 11.41-11.408 11.408 11.408c-6.699 4.5-16.119 4.5-22.818 0zm28.472-5.658-13.943-13.943v-17.933c9.64 1.944 17.402 10.673 17.402 20.47.001 4.121-1.21 8.056-3.459 11.406z"/></svg>